# xmcd
# 
# Track frame offsets:
#     150
#     18402
#     32533
#     48409
#     68061
#     84219
#     95886
#     109198
#     125383
#     144079
#     163134
#     176565
# 
# Disc length: 2590
# 
# Revision: 2
# Processed by: cddbd v1.5.2PL0 Copyright (c) Steve Scherf et al.
# Submitted via: fre:ac v1.1beta1pre4
# 
DISCID=960a1c0c
DTITLE=Liars Academy - Demons
DYEAR=2008
DGENRE=Rock
TTITLE0=Microtron
TTITLE1=Dying As Fast As I Can
TTITLE2=Action Adventure
TTITLE3=Ghosts Of Baltimore
TTITLE4=The Accountant
TTITLE5=Breathing
TTITLE6=Saturday Night
TTITLE7=Demon
TTITLE8=People Are Games
TTITLE9=Come On Danger
TTITLE10=More Than Ready
TTITLE11=Washing Machine
EXTD=
EXTT0=
EXTT1=
EXTT2=
EXTT3=
EXTT4=
EXTT5=
EXTT6=
EXTT7=
EXTT8=
EXTT9=
EXTT10=
EXTT11=
PLAYORDER=
